name p14_grf_mean_speed_1.8
datacolumns 13
datarows 34
range 0.0000000000 0.3300000000
endheader
time	grf_x_l_mean	grf_x_l_var	grf_y_l_mean	grf_y_l_var	grf_z_l_mean	grf_z_l_var	grf_x_r_mean	grf_x_r_var	grf_y_r_mean	grf_y_r_var	grf_z_r_mean	grf_z_r_var
0.0000000000	199.9747522830	1.0000000000	707.8863906521	1.0000000000	0.0000000000	0.0000000000	8.0710348635	1.0000000000	11.7957219799	1.0000000000	0.0000000000	0.0000000000
0.0100000000	209.6867166232	1.0000000000	681.8296885984	1.0000000000	0.0000000000	0.0000000000	5.7163407704	1.0000000000	59.1471305255	1.0000000000	0.0000000000	0.0000000000
0.0200000000	213.9943016569	1.0000000000	642.3223949245	1.0000000000	0.0000000000	0.0000000000	-2.4716530036	1.0000000000	136.7568804074	1.0000000000	0.0000000000	0.0000000000
0.0300000000	211.7242967851	1.0000000000	589.4077471710	1.0000000000	0.0000000000	0.0000000000	-19.5836184888	1.0000000000	244.2803109979	1.0000000000	0.0000000000	0.0000000000
0.0400000000	201.9369582169	1.0000000000	523.9429104558	1.0000000000	0.0000000000	0.0000000000	-48.2594176979	1.0000000000	370.8661416861	1.0000000000	0.0000000000	0.0000000000
0.0500000000	183.4524817493	1.0000000000	447.8248045761	1.0000000000	0.0000000000	0.0000000000	-85.4523647987	1.0000000000	497.8620018837	1.0000000000	0.0000000000	0.0000000000
0.0600000000	157.0835496632	1.0000000000	364.7463889347	1.0000000000	0.0000000000	0.0000000000	-120.8336214942	1.0000000000	605.7128488020	1.0000000000	0.0000000000	0.0000000000
0.0700000000	126.7588946431	1.0000000000	280.0373289564	1.0000000000	0.0000000000	0.0000000000	-148.4828955639	1.0000000000	682.7265642387	1.0000000000	0.0000000000	0.0000000000
0.0800000000	93.8864603217	1.0000000000	200.1312097673	1.0000000000	0.0000000000	0.0000000000	-168.1548176261	1.0000000000	729.2773153122	1.0000000000	0.0000000000	0.0000000000
0.0900000000	61.2902817725	1.0000000000	131.1277567820	1.0000000000	0.0000000000	0.0000000000	-180.3717418411	1.0000000000	755.5619194485	1.0000000000	0.0000000000	0.0000000000
0.1000000000	34.8607633350	1.0000000000	77.2252684390	1.0000000000	0.0000000000	0.0000000000	-186.1548728939	1.0000000000	773.5330102935	1.0000000000	0.0000000000	0.0000000000
0.1100000000	15.7610825112	1.0000000000	39.3210472319	1.0000000000	0.0000000000	0.0000000000	-185.6980785628	1.0000000000	789.4858665126	1.0000000000	0.0000000000	0.0000000000
0.1200000000	3.7238417284	1.0000000000	15.0926216222	1.0000000000	0.0000000000	0.0000000000	-181.5969533598	1.0000000000	803.5545665966	1.0000000000	0.0000000000	0.0000000000
0.1300000000	-2.4667731899	1.0000000000	1.3287995261	1.0000000000	0.0000000000	0.0000000000	-174.4949648304	1.0000000000	813.8658176682	1.0000000000	0.0000000000	0.0000000000
0.1400000000	0.0000000000	1.0000000000	0.0000000000	1.0000000000	0.0000000000	0.0000000000	-163.6832634316	1.0000000000	819.2877502230	1.0000000000	0.0000000000	0.0000000000
0.1500000000	0.0000000000	1.0000000000	0.0000000000	1.0000000000	0.0000000000	0.0000000000	-150.6903036019	1.0000000000	818.8894582737	1.0000000000	0.0000000000	0.0000000000
0.1600000000	0.0000000000	1.0000000000	0.0000000000	1.0000000000	0.0000000000	0.0000000000	-136.7746475143	1.0000000000	811.2066332310	1.0000000000	0.0000000000	0.0000000000
0.1700000000	0.0000000000	1.0000000000	0.0000000000	1.0000000000	0.0000000000	0.0000000000	-121.7227407012	1.0000000000	794.8221638153	1.0000000000	0.0000000000	0.0000000000
0.1800000000	0.1904956130	1.0000000000	0.0452691003	1.0000000000	0.0000000000	0.0000000000	-104.7647757585	1.0000000000	769.2770789700	1.0000000000	0.0000000000	0.0000000000
0.1900000000	0.8834701373	1.0000000000	1.8453128029	1.0000000000	0.0000000000	0.0000000000	-87.8803919378	1.0000000000	735.2792467809	1.0000000000	0.0000000000	0.0000000000
0.2000000000	1.0021163164	1.0000000000	3.0809586803	1.0000000000	0.0000000000	0.0000000000	-72.3013847442	1.0000000000	693.8079226768	1.0000000000	0.0000000000	0.0000000000
0.2100000000	1.6172546944	1.0000000000	3.7079609470	1.0000000000	0.0000000000	0.0000000000	-57.3168073477	1.0000000000	646.5727777222	1.0000000000	0.0000000000	0.0000000000
0.2200000000	2.2213211953	1.0000000000	4.0761062774	1.0000000000	0.0000000000	0.0000000000	-43.8669281251	1.0000000000	596.3310660642	1.0000000000	0.0000000000	0.0000000000
0.2300000000	1.7428892460	1.0000000000	4.2893363561	1.0000000000	0.0000000000	0.0000000000	-32.7347130115	1.0000000000	545.4666619999	1.0000000000	0.0000000000	0.0000000000
0.2400000000	1.4389758166	1.0000000000	4.2489551349	1.0000000000	0.0000000000	0.0000000000	-23.7665864120	1.0000000000	495.6827210913	1.0000000000	0.0000000000	0.0000000000
0.2500000000	1.8582437944	1.0000000000	3.9382897826	1.0000000000	0.0000000000	0.0000000000	-16.2776291943	1.0000000000	448.8969706346	1.0000000000	0.0000000000	0.0000000000
0.2600000000	1.8778961167	1.0000000000	3.5610985479	1.0000000000	0.0000000000	0.0000000000	-10.4229095836	1.0000000000	407.5647568214	1.0000000000	0.0000000000	0.0000000000
0.2700000000	1.5887652099	1.0000000000	3.2347051316	1.0000000000	0.0000000000	0.0000000000	-6.5236421249	1.0000000000	373.4502745961	1.0000000000	0.0000000000	0.0000000000
0.2800000000	1.7960871970	1.0000000000	2.7947562053	1.0000000000	0.0000000000	0.0000000000	-3.5089502675	1.0000000000	346.7742342116	1.0000000000	0.0000000000	0.0000000000
0.2900000000	2.1510960370	1.0000000000	2.1749219219	1.0000000000	0.0000000000	0.0000000000	-1.0401029408	1.0000000000	327.2850791738	1.0000000000	0.0000000000	0.0000000000
0.3000000000	1.5880270329	1.0000000000	1.5156959766	1.0000000000	0.0000000000	0.0000000000	0.5974188685	1.0000000000	315.0455306206	1.0000000000	0.0000000000	0.0000000000
0.3100000000	0.8499188578	1.0000000000	0.9401893296	1.0000000000	0.0000000000	0.0000000000	1.8820072701	1.0000000000	309.9782103240	1.0000000000	0.0000000000	0.0000000000
0.3200000000	0.9046081445	1.0000000000	0.4807652834	1.0000000000	0.0000000000	0.0000000000	3.6199801423	1.0000000000	311.5853464728	1.0000000000	0.0000000000	0.0000000000
0.3300000000	0.9766213823	1.0000000000	0.1058100331	1.0000000000	0.0000000000	0.0000000000	5.9348962265	1.0000000000	319.2958273691	1.0000000000	0.0000000000	0.0000000000
